<svg xmlns="http://www.w3.org/2000/svg" xmlns:xlink="http://www.w3.org/1999/xlink" style="vertical-align:-2.38ex" width="21.94ex" height="5.884ex" viewBox="0 -1508.9 9446.2 2533.5"><defs><path id="a" stroke-width="1" d="M52 289q7 42 54 97t116 56q35 0 64-18t43-45q42 63 101 63 37 0 64-22t28-59q0-29-14-47t-27-22-23-4q-19 0-31 11t-12 29q0 46 50 63-11 13-40 13-13 0-19-2-38-16-56-66-60-221-60-258 0-28 16-40t35-12q37 0 73 33t49 81q3 10 6 11t16 2h4q15 0 15-8 0-1-2-11-16-57-62-101T333-11q-70 0-106 63-41-62-94-62h-6q-49 0-70 26T35 71q0 32 19 52t45 20q43 0 43-42 0-20-12-35t-23-20-13-5l-3-1q0-1 6-4t16-7 19-3q36 0 62 45 9 16 23 68t28 108 16 66q5 27 5 39 0 28-15 40t-34 12q-40 0-75-32t-49-82q-2-9-5-10t-16-2H58q-6 6-6 11z"/><path id="b" stroke-width="1" d="M21 287q1 6 3 16t12 38 20 47 33 37 46 17q36 0 60-18t30-34 6-21q0-2 1-2l11 11q61 64 139 64 54 0 87-27t34-79-38-157-38-127q0-26 17-26 6 0 9 1 29 5 52 38t35 80q2 8 20 8 20 0 20-8 0-1-4-15-8-29-22-57t-46-56-69-27q-47 0-68 27t-21 56q0 19 36 120t37 152q0 59-44 59h-5q-86 0-145-101l-7-12-33-134Q156 26 151 16q-13-27-43-27-13 0-21 6T76 7t-2 10q0 13 38 163t40 163q1 5 1 23 0 39-24 39-38 0-63-100-6-20-6-21-2-6-19-6H27q-6 6-6 9z"/><path id="c" stroke-width="1" d="M56 237v13l14 20h299v150l1 150q10 13 19 13 13 0 20-15V270h298q15-8 15-20t-15-20H409V-68q-8-14-18-14h-4q-12 0-18 14v298H70q-14 7-14 20z"/><path id="d" stroke-width="1" d="M213 578l-13-5q-14-5-40-10t-58-7H83v46h19q47 2 87 15t56 24 28 22q2 3 12 3 9 0 17-6V361l1-300q7-7 12-9t24-4 62-2h26V0h-11q-21 3-159 3-136 0-157-3H88v46h64q16 0 25 1t16 3 8 2 6 5 6 4v517z"/><path id="e" stroke-width="1" d="M56 347q0 13 14 20h637q15-8 15-20 0-11-14-19l-318-1H72q-16 5-16 20zm0-194q0 15 16 20h636q14-10 14-20 0-13-15-20H70q-14 7-14 20z"/><path id="f" stroke-width="1" d="M109 429q-27 0-43 18t-16 44q0 71 53 123t132 52q91 0 152-56t62-145q0-43-20-82t-48-68-80-74q-36-31-100-92l-59-56 76-1q157 0 167 5 7 2 24 89v3h40v-3q-1-3-13-91T421 3V0H50v31q0 7 6 15t30 35q29 32 50 56 9 10 34 37t34 37 29 33 28 34 23 30 21 32 15 29 13 32 7 30 3 33q0 63-34 109t-97 46q-33 0-58-17t-35-33-10-19q0-1 5-1 18 0 37-14t19-46q0-25-16-42t-45-18z"/><path id="h" stroke-width="1" d="M34 159q0 109 86 196t186 87q56 0 88-24t33-63q0-29-19-49t-48-21q-19 0-30 10t-11 30 11 34 22 21 14 6h1q0 2-6 6t-21 8-34 4q-30 0-57-14-21-9-43-31-44-44-64-124t-21-116q0-46 26-69 22-24 58-24h4q112 0 185 85 9 10 12 10 4 0 13-9t10-14-9-15-29-28-45-30-64-25-80-11q-75 0-121 48T34 159z"/><path id="g" stroke-width="1" d="M701-940q0-3-6-9h-31q-2 2-28 27t-45 43-54 61-62 81-63 101-62 125-55 149-45 176-29 203-12 234q0 711 364 1110 23 25 43 44t33 32 15 13h31q6-6 6-9 0-5-20-26t-52-59-72-95-81-143-76-191-60-252-32-316q-2-38-2-109 0-389 94-680t290-494q11-12 11-16z"/><path id="i" stroke-width="1" d="M34 1438q0 8 3 10t13 2h21q2-2 28-27t45-43 54-61 62-81 63-101 62-124 55-149 45-176 29-203 12-234q0-117-7-198-47-572-357-913-23-25-43-44t-33-32-15-13H56q-13 0-17 2t-5 10q54 54 106 124Q428-430 428 251q0 202-26 377t-64 294-93 224-100 163-99 116l-4 4q-2 2-3 4t-3 3l-2 2z"/></defs><g fill="currentColor" stroke="currentColor" stroke-width="0" transform="scale(1 -1)"><use xlink:href="#a"/><g transform="matrix(.707 0 0 .707 572 -150)"><use xlink:href="#b"/><use x="600" xlink:href="#c"/><use x="1379" xlink:href="#d"/></g><use x="2279" xlink:href="#e"/><g transform="translate(3454)"><path stroke="none" d="M0 220h620v60H0z"/><use x="60" y="676" xlink:href="#d"/><use x="60" y="-686" xlink:href="#f"/></g><g transform="translate(4196)"><use xlink:href="#g"/><g transform="translate(736)"><use xlink:href="#a"/><use x="809" y="-213" transform="scale(.707)" xlink:href="#b"/><use x="1319" xlink:href="#c"/><g transform="translate(2439)"><path stroke="none" d="M0 220h1217v60H0z"/><use x="391" y="676" xlink:href="#h"/><g transform="translate(60 -686)"><use xlink:href="#a"/><use x="809" y="-213" transform="scale(.707)" xlink:href="#b"/></g></g></g><use x="4513" y="-1" xlink:href="#i"/></g></g></svg>